<svg width="1400" height="1400" viewBox="0 0 1400 1400" fill="none" xmlns="http://www.w3.org/2000/svg">
<g clip-path="url(#clip0_19_2)">
<path d="M660.477 1144.54C633.889 1144.54 595.741 1119.68 546.033 1069.97C496.903 1019.69 440.837 948.595 377.835 856.693L580.713 622.603L519.156 611.332C519.156 595.726 524.358 585.033 534.762 579.253H702.093C702.093 598.327 696.024 609.02 683.886 611.332L630.132 625.204L440.259 844.555C458.755 868.253 479.274 893.685 501.816 920.851C524.936 947.439 548.634 973.738 572.91 999.748C597.764 1025.18 622.04 1048.59 645.738 1069.97C669.436 1090.78 691.4 1107.26 711.63 1119.39C705.85 1126.91 698.625 1132.98 689.955 1137.6C681.285 1142.23 671.459 1144.54 660.477 1144.54ZM239.115 1135C239.115 1117.08 243.739 1106.68 252.987 1103.79L298.071 1091.65V624.337L239.115 611.332C239.115 603.24 240.271 596.882 242.583 592.258C244.895 587.634 249.23 583.299 255.588 579.253H429.855C429.855 597.749 425.231 608.153 415.983 610.465L369.165 622.603V1089.92L429.855 1102.92C429.855 1110.43 428.699 1116.5 426.387 1121.13C424.653 1125.75 420.607 1130.38 414.249 1135H239.115Z" fill="black"/>
<path d="M1162.48 1144.54C1135.89 1144.54 1097.74 1119.68 1048.03 1069.97C998.903 1019.69 942.837 948.595 879.835 856.693L1082.71 622.603L1021.16 611.332C1021.16 595.726 1026.36 585.033 1036.76 579.253H1204.09C1204.09 598.327 1198.02 609.02 1185.89 611.332L1132.13 625.204L942.259 844.555C960.755 868.253 981.274 893.685 1003.82 920.851C1026.94 947.439 1050.63 973.738 1074.91 999.748C1099.76 1025.18 1124.04 1048.59 1147.74 1069.97C1171.44 1090.78 1193.4 1107.26 1213.63 1119.39C1207.85 1126.91 1200.62 1132.98 1191.95 1137.6C1183.28 1142.23 1173.46 1144.54 1162.48 1144.54ZM741.115 1135C741.115 1117.08 745.739 1106.68 754.987 1103.79L800.071 1091.65V624.337L741.115 611.332C741.115 603.24 742.271 596.882 744.583 592.258C746.895 587.634 751.23 583.299 757.588 579.253H931.855C931.855 597.749 927.231 608.153 917.983 610.465L871.165 622.603V1089.92L931.855 1102.92C931.855 1110.43 930.699 1116.5 928.387 1121.13C926.653 1125.75 922.607 1130.38 916.249 1135H741.115Z" fill="black"/>
<path d="M276.799 515.504C276.799 515.504 275.002 456.339 276.799 418.498C278.89 374.454 280.229 349.522 288.372 306.176C295.316 269.214 312.806 213 312.806 213C312.806 213 358.721 241.651 386.106 262.779C419.792 288.769 437.635 304.925 467.121 335.533C506.419 376.327 557.139 449.132 557.139 449.132" stroke="black" stroke-width="45"/>
<path d="M1123.96 515.504C1123.96 515.504 1125.75 456.339 1123.96 418.498C1121.86 374.454 1120.53 349.522 1112.38 306.176C1105.44 269.214 1087.95 213 1087.95 213C1087.95 213 1042.03 241.651 1014.65 262.779C980.963 288.769 963.119 304.925 933.634 335.533C894.336 376.327 843.616 449.132 843.616 449.132" stroke="black" stroke-width="45"/>
<circle cx="700" cy="700" r="690" stroke="black" stroke-width="20"/>
</g>
<defs>
<clipPath id="clip0_19_2">
<rect width="1400" height="1400" fill="white"/>
</clipPath>
</defs>
</svg>
