<svg width="1400" height="1400" viewBox="0 0 1400 1400" fill="none" xmlns="http://www.w3.org/2000/svg">
<g clip-path="url(#clip0_0_1)">
<path d="M926.236 1134.33C913.876 1134.33 899.112 1129.52 881.946 1119.91C864.779 1110.3 845.552 1096.22 824.266 1077.68C802.979 1058.45 779.976 1035.11 755.256 1007.64C730.536 979.487 704.442 947.557 676.976 911.85C649.509 876.143 620.669 836.317 590.456 792.37L846.926 496.76L861.346 520.45L758.346 500.88C758.346 490.58 759.719 482.683 762.466 477.19C765.212 471.697 770.019 466.89 776.886 462.77H975.676C975.676 485.43 968.466 498.133 954.046 500.88L877.826 520.45L912.846 491.61L645.046 799.58L656.376 767.65C678.349 795.803 703.069 826.36 730.536 859.32C758.689 892.28 787.872 924.553 818.086 956.14C848.299 987.727 877.826 1016.57 906.666 1042.66C935.506 1068.75 962.286 1089.35 987.006 1104.46C980.139 1113.39 971.556 1120.6 961.256 1126.09C950.956 1131.58 939.282 1134.33 926.236 1134.33ZM425.656 1123C425.656 1112.01 427.029 1103.43 429.776 1097.25C433.209 1091.07 437.329 1087.29 442.136 1085.92L511.146 1067.38L495.696 1083.86V502.94L512.176 520.45L425.656 500.88C425.656 491.267 427.029 483.713 429.776 478.22C432.522 472.727 437.672 467.577 445.226 462.77H652.256C652.256 473.757 650.882 482.34 648.136 488.52C645.389 494.7 641.269 498.477 635.776 499.85L562.646 518.39L580.156 500.88V1082.83L561.616 1065.32L652.256 1084.89C652.256 1093.82 650.882 1101.03 648.136 1106.52C646.076 1112.01 641.269 1117.51 633.716 1123H425.656Z" fill="url(#paint0_linear_0_1)"/>
<path d="M1087.24 1192.33C1074.88 1192.33 1060.11 1187.52 1042.95 1177.91C1025.78 1168.3 1006.55 1154.22 985.266 1135.68C963.979 1116.45 940.976 1093.11 916.256 1065.64C891.536 1037.49 865.442 1005.56 837.976 969.85C810.509 934.143 781.669 894.317 751.456 850.37L1007.93 554.76L1022.35 578.45L919.346 558.88C919.346 548.58 920.719 540.683 923.466 535.19C926.212 529.697 931.019 524.89 937.886 520.77H1136.68C1136.68 543.43 1129.47 556.133 1115.05 558.88L1038.83 578.45L1073.85 549.61L806.046 857.58L817.376 825.65C839.349 853.803 864.069 884.36 891.536 917.32C919.689 950.28 948.872 982.553 979.086 1014.14C1009.3 1045.73 1038.83 1074.57 1067.67 1100.66C1096.51 1126.75 1123.29 1147.35 1148.01 1162.46C1141.14 1171.39 1132.56 1178.6 1122.26 1184.09C1111.96 1189.58 1100.28 1192.33 1087.24 1192.33ZM586.656 1181C586.656 1170.01 588.029 1161.43 590.776 1155.25C594.209 1149.07 598.329 1145.29 603.136 1143.92L672.146 1125.38L656.696 1141.86V560.94L673.176 578.45L586.656 558.88C586.656 549.267 588.029 541.713 590.776 536.22C593.522 530.727 598.672 525.577 606.226 520.77H813.256C813.256 531.757 811.882 540.34 809.136 546.52C806.389 552.7 802.269 556.477 796.776 557.85L723.646 576.39L741.156 558.88V1140.83L722.616 1123.32L813.256 1142.89C813.256 1151.82 811.882 1159.03 809.136 1164.52C807.076 1170.01 802.269 1175.51 794.716 1181H586.656Z" fill="url(#paint1_linear_0_1)" fill-opacity="0.64"/>
<path d="M399.566 408.504C399.566 408.504 398.292 366.551 399.566 339.718C401.049 308.486 401.999 290.807 407.773 260.071C412.697 233.861 425.099 194 425.099 194C425.099 194 457.657 214.317 477.075 229.298C500.962 247.727 513.615 259.183 534.523 280.888C562.389 309.814 598.354 361.44 598.354 361.44" stroke="#9B4C7A" stroke-width="45"/>
<path d="M1000.28 408.504C1000.28 408.504 1001.56 366.551 1000.28 339.718C998.798 308.486 997.849 290.807 992.075 260.071C987.15 233.861 974.749 194 974.749 194C974.749 194 942.191 214.317 922.772 229.298C898.885 247.727 886.233 259.183 865.324 280.888C837.459 309.814 801.494 361.44 801.494 361.44" stroke="#9B4C7A" stroke-width="45"/>
<circle cx="700" cy="700" r="690" fill="url(#paint2_linear_0_1)" stroke="#4A3541" stroke-width="20"/>
</g>
<defs>
<linearGradient id="paint0_linear_0_1" x1="407.5" y1="485.5" x2="1004" y2="1096" gradientUnits="userSpaceOnUse">
<stop offset="0.00032404" stop-color="#9B4C7A"/>
<stop offset="1" stop-color="#F86FBF"/>
</linearGradient>
<linearGradient id="paint1_linear_0_1" x1="551.5" y1="494" x2="1157" y2="1181" gradientUnits="userSpaceOnUse">
<stop stop-color="#9B4C7A"/>
<stop offset="1" stop-color="#F759B5"/>
</linearGradient>
<linearGradient id="paint2_linear_0_1" x1="22.5" y1="26.5" x2="1400" y2="1374.5" gradientUnits="userSpaceOnUse">
<stop stop-color="#F4CDD3" stop-opacity="0.5"/>
<stop offset="1" stop-color="#F86FBF" stop-opacity="0"/>
</linearGradient>
<clipPath id="clip0_0_1">
<rect width="1400" height="1400" fill="white"/>
</clipPath>
</defs>
</svg>
